# xmcd
#
# Track frame offsets:
#	183
#	4143
#	13888
#	25853
#	39540
#	53030
#	72273
#	89730
#	106745
#	122318
#	134703
#	147555
#	167860
#	193933
#	208000
#	226223
#	236850
#	254715
# Disc length: 3529 seconds
# Revision: 4
# Processed by: cddbd v1.5.2PL0 Copyright (c) Steve Scherf et al.
#
# Submitted via: jack 3.1.1
#
DISCID=0d0dc712
DTITLE=Various Artist - Murderer's Home
DYEAR=1947
DGENRE=Blues
TTITLE0=Jimpson - Road Song (Murderer's Home)
TTITLE1=Jimpson - No More, My Lawd
TTITLE2=[unknown] - Kate Left Memphis
TTITLE3=B.B. - Old Alabama
TTITLE4=B.B. - Black Woman
TTITLE5=Tangle Eye, Fuzzle Red and Hard Hair - Jumpin' Judy
TTITLE6=C.B. - Whoa Back
TTITLE7=22 - Prettiest Train
TTITLE8=22 - Old Dollar Mamie
TTITLE9=22 - It Makes A Long Time Man Feel Bad
TTITLE10=C.B. - Rosie
TTITLE11=Bama - Levee Camp Holler
TTITLE12=22, Tangle Eye, Fuzzle Red and Hard Hair - Early In The Mornin'
TTITLE13=Tangle Eye - Tangle Eye Blues
TTITLE14=Bama - Stackerlee
TTITLE15=Alex - Prison Blues
TTITLE16=Bob and Leroy - Sometimes I Wonder
TTITLE17=Bob and Leroy - Bye Bye Baby
EXTD=
EXTT0=
EXTT1=
EXTT2=
EXTT3=
EXTT4=
EXTT5=
EXTT6=
EXTT7=
EXTT8=
EXTT9=
EXTT10=
EXTT11=
EXTT12=
EXTT13=
EXTT14=
EXTT15=
EXTT16=
EXTT17=
PLAYORDER=
